<svg version="1.1" viewBox="0.0 0.0 960.0 960.0" fill="none" stroke="none" stroke-linecap="square" stroke-miterlimit="10" xmlns:xlink="http://www.w3.org/1999/xlink" xmlns="http://www.w3.org/2000/svg"><clipPath id="p.0"><path d="m0 0l960.0 0l0 960.0l-960.0 0l0 -960.0z" clip-rule="nonzero"/></clipPath><g clip-path="url(#p.0)"><path fill="#ffffff" d="m0 0l960.0 0l0 960.0l-960.0 0z" fill-rule="evenodd"/><path fill="#000000" fill-opacity="0.0" d="m154.97769 -31.708662l407.68503 0l0 665.7953l-407.68503 0z" fill-rule="evenodd"/><path fill="#000000" d="m447.0402 348.93198l74.74997 23.6875q-17.18747 62.5 -57.171844 92.84375q-39.96875 30.34375 -101.421875 30.34375q-76.046875 0 -125.0 -51.953125q-48.953125 -51.953125 -48.953125 -142.0625q0 -95.312515 49.21875 -148.04689q49.21875 -52.734375 129.42188 -52.734375q70.046875 0 113.796875 41.40625q26.046875 24.484375 39.06247 70.3125l-76.296844 18.234375q-6.78125 -29.6875 -28.265625 -46.875q-21.46875 -17.1875 -52.203125 -17.1875q-42.453125 0 -68.890625 30.46875q-26.421875 30.46875 -26.421875 98.687515q0 72.40625 26.03125 103.140625q26.046875 30.71875 67.71875 30.71875q30.734375 0 52.859375 -19.53125q22.140625 -19.53125 31.765625 -61.453125z" fill-rule="nonzero"/><path fill="#000000" fill-opacity="0.0" d="m397.33728 230.55905l407.68506 0l0 665.7953l-407.68506 0z" fill-rule="evenodd"/><path fill="#000000" d="m445.39978 751.5591l0 -381.76566l77.078125 0l0 150.25003l151.04688 0l0 -150.25003l77.078125 0l0 381.76566l-77.078125 0l0 -166.92188l-151.04688 0l0 166.92188l-77.078125 0z" fill-rule="nonzero"/><path fill="#000000" fill-opacity="0.0" d="m113.65354 763.7139l732.6929 0l0 116.346436l-732.6929 0z" fill-rule="evenodd"/><path fill="#000000" d="m175.76173 829.4358l7.578125 1.90625q-2.375 9.34375 -8.578125 14.25q-6.1875 4.90625 -15.125 4.90625q-9.265625 0 -15.0625 -3.765625q-5.796875 -3.78125 -8.828125 -10.921875q-3.03125 -7.15625 -3.03125 -15.359375q0 -8.953125 3.421875 -15.609375q3.421875 -6.65625 9.71875 -10.109375q6.3125 -3.46875 13.890625 -3.46875q8.59375 0 14.453125 4.375q5.859375 4.375 8.171875 12.3125l-7.46875 1.75q-1.984375 -6.25 -5.78125 -9.09375q-3.78125 -2.859375 -9.53125 -2.859375q-6.59375 0 -11.03125 3.171875q-4.4375 3.15625 -6.234375 8.5q-1.796875 5.328125 -1.796875 10.984375q0 7.3125 2.125 12.765625q2.140625 5.4375 6.625 8.140625q4.5 2.6875 9.734375 2.6875q6.359375 0 10.765625 -3.671875q4.421875 -3.671875 5.984375 -10.890625zm16.023438 20.078125l0 -57.265625l7.03125 0l0 20.546875q4.921875 -5.703125 12.421875 -5.703125q4.609375 0 8.0 1.8125q3.40625 1.8125 4.859375 5.015625q1.46875 3.203125 1.46875 9.296875l0 26.296875l-7.03125 0l0 -26.296875q0 -5.265625 -2.28125 -7.671875q-2.28125 -2.40625 -6.46875 -2.40625q-3.125 0 -5.875 1.625q-2.75 1.625 -3.921875 4.40625q-1.171875 2.765625 -1.171875 7.640625l0 22.703125l-7.03125 0zm44.414062 0l0 -41.484375l6.328125 0l0 6.28125q2.421875 -4.40625 4.46875 -5.8125q2.046875 -1.40625 4.515625 -1.40625q3.546875 0 7.2187347 2.265625l-2.421875 6.515625q-2.5781097 -1.515625 -5.1562347 -1.515625q-2.296875 0 -4.140625 1.390625q-1.828125 1.375 -2.609375 3.84375q-1.171875 3.75 -1.171875 8.203125l0 21.71875l-7.03125 0zm26.749985 -49.1875l0 -8.078125l7.03125 0l0 8.078125l-7.03125 0zm0 49.1875l0 -41.484375l7.03125 0l0 41.484375l-7.03125 0zm14.9296875 -12.390625l6.953125 -1.09375q0.578125 4.1875 3.25 6.421875q2.6875 2.21875 7.484375 2.21875q4.84375 0 7.1875 -1.96875q2.34375 -1.984375 2.34375 -4.640625q0 -2.375 -2.0625 -3.75q-1.453125 -0.9375 -7.1875 -2.375q-7.734375 -1.953125 -10.734375 -3.375q-2.984375 -1.4375 -4.53125 -3.953125q-1.53125 -2.515625 -1.53125 -5.5625q0 -2.78125 1.265625 -5.140625q1.265625 -2.359375 3.453125 -3.921875q1.640625 -1.21875 4.46875 -2.046875q2.84375 -0.84375 6.078125 -0.84375q4.890625 0 8.578125 1.40625q3.6875 1.40625 5.4375 3.8125q1.765625 2.390625 2.4375 6.421875l-6.875 0.9375q-0.46875 -3.203125 -2.71875 -5.0q-2.25 -1.796875 -6.34375 -1.796875q-4.84375 0 -6.921875 1.609375q-2.0625 1.59375 -2.0625 3.734375q0 1.375 0.859375 2.46875q0.859375 1.125 2.6875 1.875q1.0625 0.390625 6.21875 1.796875q7.453125 1.984375 10.40625 3.265625q2.953125 1.265625 4.625 3.6875q1.6875 2.421875 1.6875 6.015625q0 3.515625 -2.0625 6.625q-2.046875 3.09375 -5.921875 4.796875q-3.859375 1.703125 -8.734375 1.703125q-8.09375 0 -12.328125 -3.359375q-4.234375 -3.359375 -5.40625 -9.96875zm58.15625 6.09375l1.015625 6.21875q-2.96875 0.625 -5.3125 0.625q-3.828125 0 -5.9375 -1.203125q-2.109375 -1.21875 -2.96875 -3.1875q-0.859375 -1.984375 -0.859375 -8.3125l0 -23.859375l-5.15625 0l0 -5.46875l5.15625 0l0 -10.28125l7.0 -4.21875l0 14.5l7.0625 0l0 5.46875l-7.0625 0l0 24.25q0 3.015625 0.359375 3.875q0.375 0.859375 1.21875 1.375q0.84375 0.5 2.40625 0.5q1.171875 0 3.078125 -0.28125zm4.2578125 -14.453125q0 -11.515625 6.40625 -17.0625q5.359375 -4.609375 13.046875 -4.609375q8.5625 0 13.984375 5.609375q5.4375 5.59375 5.4375 15.484375q0 8.0 -2.40625 12.59375q-2.40625 4.59375 -7.0 7.140625q-4.578125 2.53125 -10.015625 2.53125q-8.703125 0 -14.078125 -5.578125q-5.375 -5.59375 -5.375 -16.109375zm7.234375 0q0 7.96875 3.46875 11.9375q3.484375 3.96875 8.75 3.96875q5.234375 0 8.703125 -3.984375q3.484375 -3.984375 3.484375 -12.15625q0 -7.6875 -3.5 -11.65625q-3.484375 -3.96875 -8.6875 -3.96875q-5.265625 0 -8.75 3.953125q-3.46875 3.9375 -3.46875 11.90625zm39.882812 36.65625l0 -57.390625l6.40625 0l0 5.390625q2.265625 -3.171875 5.109375 -4.75q2.859375 -1.578125 6.921875 -1.578125q5.3125 0 9.375 2.734375q4.0625 2.734375 6.125 7.71875q2.078125 4.96875 2.078125 10.90625q0 6.375 -2.296875 11.46875q-2.28125 5.09375 -6.640625 7.8125q-4.34375 2.71875 -9.15625 2.71875q-3.515625 0 -6.3125 -1.484375q-2.78125 -1.484375 -4.578125 -3.75l0 20.203125l-7.03125 0zm6.359375 -36.421875q0 8.015625 3.234375 11.84375q3.25 3.828125 7.859375 3.828125q4.6875 0 8.03125 -3.96875q3.34375 -3.96875 3.34375 -12.28125q0 -7.9375 -3.265625 -11.875q-3.265625 -3.953125 -7.796875 -3.953125q-4.484375 0 -7.953125 4.203125q-3.453125 4.203125 -3.453125 12.203125zm38.132812 20.515625l0 -57.265625l7.03125 0l0 20.546875q4.921875 -5.703125 12.421875 -5.703125q4.609375 0 8.0 1.8125q3.40625 1.8125 4.859375 5.015625q1.46875 3.203125 1.46875 9.296875l0 26.296875l-7.03125 0l0 -26.296875q0 -5.265625 -2.28125 -7.671875q-2.28125 -2.40625 -6.46875 -2.40625q-3.125 0 -5.875 1.625q-2.75 1.625 -3.921875 4.40625q-1.171875 2.765625 -1.171875 7.640625l0 22.703125l-7.03125 0zm72.88281 -13.359375l7.265625 0.890625q-1.71875 6.375 -6.375 9.890625q-4.640625 3.515625 -11.859375 3.515625q-9.109375 0 -14.4375 -5.609375q-5.328125 -5.609375 -5.328125 -15.71875q0 -10.46875 5.390625 -16.25q5.390625 -5.78125 13.984375 -5.78125q8.3125 0 13.578125 5.671875q5.28125 5.65625 5.28125 15.921875q0 0.625 -0.03125 1.875l-30.9375 0q0.390625 6.84375 3.859375 10.484375q3.484375 3.625 8.671875 3.625q3.875 0 6.609375 -2.03125q2.734375 -2.03125 4.328125 -6.484375zm-23.078125 -11.375l23.15625 0q-0.46875 -5.234375 -2.65625 -7.84375q-3.359375 -4.0625 -8.703125 -4.0625q-4.84375 0 -8.15625 3.25q-3.296875 3.234375 -3.640625 8.65625zm39.101562 24.734375l0 -41.484375l6.328125 0l0 6.28125q2.421875 -4.40625 4.46875 -5.8125q2.046875 -1.40625 4.515625 -1.40625q3.546875 0 7.21875 2.265625l-2.421875 6.515625q-2.578125 -1.515625 -5.15625 -1.515625q-2.296875 0 -4.140625 1.390625q-1.828125 1.375 -2.609375 3.84375q-1.171875 3.75 -1.171875 8.203125l0 21.71875l-7.03125 0zm50.070312 0l0 -57.265625l7.578125 0l0 23.515625l29.765625 0l0 -23.515625l7.578125 0l0 57.265625l-7.578125 0l0 -27.0l-29.765625 0l0 27.0l-7.578125 0zm56.679688 -49.1875l0 -8.078125l7.03125 0l0 8.078125l-7.03125 0zm0 49.1875l0 -41.484375l7.03125 0l0 41.484375l-7.03125 0zm16.445312 3.4375l6.84375 1.015625q0.421875 3.171875 2.375 4.609375q2.625 1.953125 7.15625 1.953125q4.875 0 7.53125 -1.953125q2.65625 -1.953125 3.59375 -5.46875q0.546875 -2.140625 0.515625 -9.03125q-4.609375 5.4375 -11.484375 5.4375q-8.5625 0 -13.25 -6.171875q-4.6875 -6.171875 -4.6875 -14.8125q0 -5.9375 2.140625 -10.953125q2.15625 -5.015625 6.234375 -7.75q4.09375 -2.734375 9.59375 -2.734375q7.34375 0 12.109375 5.9375l0 -5.0l6.484375 0l0 35.859375q0 9.6875 -1.96875 13.734375q-1.96875 4.046875 -6.25 6.390625q-4.28125 2.34375 -10.53125 2.34375q-7.421875 0 -12.0 -3.34375q-4.5625 -3.34375 -4.40625 -10.0625zm5.828125 -24.921875q0 8.15625 3.234375 11.90625q3.25 3.75 8.125 3.75q4.84375 0 8.125 -3.71875q3.28125 -3.734375 3.28125 -11.703125q0 -7.625 -3.375 -11.484375q-3.375 -3.875 -8.140625 -3.875q-4.6875 0 -7.96875 3.8125q-3.28125 3.8125 -3.28125 11.3125zm38.664062 24.921875l6.84375 1.015625q0.421875 3.171875 2.375 4.609375q2.625 1.953125 7.15625 1.953125q4.875 0 7.53125 -1.953125q2.65625 -1.953125 3.59375 -5.46875q0.546875 -2.140625 0.515625 -9.03125q-4.609375 5.4375 -11.484375 5.4375q-8.5625 0 -13.25 -6.171875q-4.6875 -6.171875 -4.6875 -14.8125q0 -5.9375 2.140625 -10.953125q2.15625 -5.015625 6.234375 -7.75q4.09375 -2.734375 9.59375 -2.734375q7.34375 0 12.109375 5.9375l0 -5.0l6.484375 0l0 35.859375q0 9.6875 -1.96875 13.734375q-1.96875 4.046875 -6.25 6.390625q-4.28125 2.34375 -10.53125 2.34375q-7.421875 0 -12.0 -3.34375q-4.5625 -3.34375 -4.40625 -10.0625zm5.828125 -24.921875q0 8.15625 3.234375 11.90625q3.25 3.75 8.125 3.75q4.84375 0 8.125 -3.71875q3.28125 -3.734375 3.28125 -11.703125q0 -7.625 -3.375 -11.484375q-3.375 -3.875 -8.140625 -3.875q-4.6875 0 -7.96875 3.8125q-3.28125 3.8125 -3.28125 11.3125zm39.992188 -27.703125l0 -8.078125l7.03125 0l0 8.078125l-7.03125 0zm0 49.1875l0 -41.484375l7.03125 0l0 41.484375l-7.03125 0zm17.742188 0l0 -41.484375l6.328125 0l0 5.890625q4.5625 -6.828125 13.203125 -6.828125q3.75 0 6.890625 1.34375q3.140625 1.34375 4.703125 3.53125q1.5625 2.1875 2.1875 5.203125q0.390625 1.953125 0.390625 6.828125l0 25.515625l-7.03125 0l0 -25.234375q0 -4.296875 -0.828125 -6.421875q-0.8125 -2.140625 -2.90625 -3.40625q-2.078125 -1.265625 -4.890625 -1.265625q-4.5 0 -7.765625 2.859375q-3.25 2.84375 -3.25 10.8125l0 22.65625l-7.03125 0zm41.679688 -12.390625l6.953125 -1.09375q0.578125 4.1875 3.25 6.421875q2.6875 2.21875 7.484375 2.21875q4.84375 0 7.1875 -1.96875q2.34375 -1.984375 2.34375 -4.640625q0 -2.375 -2.0625 -3.75q-1.453125 -0.9375 -7.1875 -2.375q-7.734375 -1.953125 -10.734375 -3.375q-2.984375 -1.4375 -4.53125 -3.953125q-1.53125 -2.515625 -1.53125 -5.5625q0 -2.78125 1.265625 -5.140625q1.265625 -2.359375 3.453125 -3.921875q1.640625 -1.21875 4.46875 -2.046875q2.84375 -0.84375 6.078125 -0.84375q4.890625 0 8.578125 1.40625q3.6875 1.40625 5.4375 3.8125q1.765625 2.390625 2.4375 6.421875l-6.875 0.9375q-0.46875 -3.203125 -2.71875 -5.0q-2.25 -1.796875 -6.34375 -1.796875q-4.84375 0 -6.921875 1.609375q-2.0625 1.59375 -2.0625 3.734375q0 1.375 0.859375 2.46875q0.859375 1.125 2.6875 1.875q1.0625 0.390625 6.21875 1.796875q7.453125 1.984375 10.40625 3.265625q2.953125 1.265625 4.625 3.6875q1.6875 2.421875 1.6875 6.015625q0 3.515625 -2.0625 6.625q-2.046875 3.09375 -5.921875 4.796875q-3.859375 1.703125 -8.734375 1.703125q-8.09375 0 -12.328125 -3.359375q-4.234375 -3.359375 -5.40625 -9.96875z" fill-rule="nonzero"/></g></svg>